<svg width="23" height="23" viewBox="0 0 23 23" fill="none" xmlns="http://www.w3.org/2000/svg">
    <path d="M13.6174 9.04924C13.1976 8.62936 12.6993 8.29628 12.1508 8.06903C11.6023 7.84178 11.0144 7.72482 10.4207 7.72482C9.827 7.72482 9.23911 7.84178 8.69062 8.06903C8.14213 8.29628 7.64378 8.62936 7.22404 9.04924L2.65737 13.6172C1.80974 14.465 1.33362 15.6149 1.33374 16.8137C1.33387 18.0126 1.81023 19.1623 2.65804 20.0099C3.50585 20.8575 4.65565 21.3337 5.85451 21.3335C7.05337 21.3334 8.20307 20.857 9.0507 20.0092L9.4787 19.6039M9.0507 13.6172C9.47045 14.0371 9.96879 14.3702 10.5173 14.5975C11.0658 14.8247 11.6537 14.9417 12.2474 14.9417C12.8411 14.9417 13.429 14.8247 13.9775 14.5975C14.5259 14.3702 15.0243 14.0371 15.444 13.6172L20.0094 9.04924C20.8572 8.20161 21.3335 7.0519 21.3337 5.85304C21.3338 4.65419 20.8577 3.50438 20.01 2.65657C19.1624 1.80876 18.0127 1.3324 16.8138 1.33228C15.615 1.33215 14.4652 1.80827 13.6174 2.65591L12.2467 3.93724" stroke="white" stroke-width="2" stroke-linecap="round" stroke-linejoin="round"/>
</svg>
