<svg width="42" height="43" viewBox="0 0 42 43" fill="none" xmlns="http://www.w3.org/2000/svg">
    <path d="M18.3752 3.58331C21.1681 3.58312 23.9047 4.38796 26.2717 5.90573C28.6387 7.42349 30.5406 9.59286 31.7596 12.1656C32.9786 14.7383 33.4655 17.6104 33.1646 20.4532C32.8637 23.2959 31.7872 25.9946 30.0582 28.2402L36.4492 34.7834C36.768 35.1213 36.9444 35.5739 36.9404 36.0437C36.9364 36.5134 36.7523 36.9628 36.4279 37.295C36.1034 37.6272 35.6645 37.8156 35.2057 37.8197C34.7468 37.8238 34.3048 37.6432 33.9747 37.3168L27.5837 30.7736C25.7207 32.2768 23.5337 33.302 21.205 33.7638C18.8763 34.2256 16.4735 34.1105 14.1971 33.4282C11.9207 32.7459 9.83665 31.5161 8.11886 29.8415C6.40108 28.1669 5.09936 26.096 4.32231 23.8015C3.54526 21.5071 3.31541 19.0557 3.65194 16.6518C3.98847 14.2479 4.88161 11.9613 6.25686 9.98271C7.63211 8.0041 9.44959 6.3909 11.5576 5.27768C13.6657 4.16447 16.0032 3.58352 18.3752 3.58331ZM18.3752 7.16665C15.3584 7.16665 12.4651 8.39361 10.3319 10.5776C8.19863 12.7616 7.0002 15.7238 7.0002 18.8125C7.0002 21.9011 8.19863 24.8633 10.3319 27.0473C12.4651 29.2313 15.3584 30.4583 18.3752 30.4583C21.392 30.4583 24.2853 29.2313 26.4185 27.0473C28.5518 24.8633 29.7502 21.9011 29.7502 18.8125C29.7502 15.7238 28.5518 12.7616 26.4185 10.5776C24.2853 8.39361 21.392 7.16665 18.3752 7.16665ZM18.3752 8.95831C20.9279 8.95831 23.3761 9.99652 25.1811 11.8445C26.9861 13.6925 28.0002 16.199 28.0002 18.8125C28.0002 21.426 26.9861 23.9324 25.1811 25.7804C23.3761 27.6284 20.9279 28.6666 18.3752 28.6666C15.8225 28.6666 13.3743 27.6284 11.5693 25.7804C9.76426 23.9324 8.7502 21.426 8.7502 18.8125C8.7502 16.199 9.76426 13.6925 11.5693 11.8445C13.3743 9.99652 15.8225 8.95831 18.3752 8.95831Z" fill="white"/>
</svg>
