<svg width="32" height="31" viewBox="0 0 32 31" fill="none" xmlns="http://www.w3.org/2000/svg">
    <path d="M5.5 24.0417C5.5 20.625 12.5 18.7458 16 18.7458C19.5 18.7458 26.5 20.625 26.5 24.0417V25.75H5.5M21.25 10.375C21.25 11.7342 20.6969 13.0378 19.7123 13.9989C18.7277 14.96 17.3924 15.5 16 15.5C14.6076 15.5 13.2723 14.96 12.2877 13.9989C11.3031 13.0378 10.75 11.7342 10.75 10.375C10.75 9.01577 11.3031 7.7122 12.2877 6.75108C13.2723 5.78995 14.6076 5.25 16 5.25C17.3924 5.25 18.7277 5.78995 19.7123 6.75108C20.6969 7.7122 21.25 9.01577 21.25 10.375ZM0.25 3.54167V27.4583C0.25 28.3645 0.618749 29.2335 1.27513 29.8743C1.9315 30.515 2.82174 30.875 3.75 30.875H28.25C29.1783 30.875 30.0685 30.515 30.7249 29.8743C31.3813 29.2335 31.75 28.3645 31.75 27.4583V3.54167C31.75 2.63551 31.3813 1.76647 30.7249 1.12572C30.0685 0.484969 29.1783 0.125 28.25 0.125H3.75C2.82174 0.125 1.9315 0.484969 1.27513 1.12572C0.618749 1.76647 0.25 2.63551 0.25 3.54167Z" fill="white"/>
</svg>
