<svg width="38" height="38" viewBox="0 0 38 38" fill="none" xmlns="http://www.w3.org/2000/svg">
    <path fill-rule="evenodd" clip-rule="evenodd" d="M10.005 0.187511H10.2273C10.8415 0.187511 11.237 0.187511 11.6237 0.222511C13.2891 0.378169 14.8687 1.0326 16.1562 2.10026C16.4538 2.34876 16.7338 2.62876 17.1695 3.06276L18.1775 4.07251C19.658 5.55126 20.2267 6.10426 20.8848 6.47001C21.2674 6.68234 21.6693 6.84918 22.0905 6.97051C22.8132 7.17526 23.606 7.18751 25.699 7.18751H26.4428C28.6705 7.18751 30.4678 7.18751 31.887 7.36601C33.3587 7.55151 34.61 7.94701 35.639 8.87101C35.8105 9.02618 35.9738 9.18951 36.129 9.36101C37.0547 10.39 37.4485 11.6413 37.634 13.113C37.8125 14.534 37.8125 16.3295 37.8125 18.5573V22.5998C37.8125 25.8145 37.8125 28.3625 37.5448 30.3558C37.2682 32.4068 36.6872 34.0675 35.3783 35.3783C34.0675 36.6873 32.4067 37.2683 30.3558 37.5448C28.3608 37.8125 25.8145 37.8125 22.598 37.8125H15.402C12.1855 37.8125 9.6375 37.8125 7.64425 37.5448C5.59325 37.2683 3.9325 36.6873 2.62175 35.3783C1.31275 34.0675 0.73175 32.4068 0.45525 30.3558C0.1875 28.3608 0.1875 25.8145 0.1875 22.598V10.005C0.1875 8.61026 0.1875 7.72476 0.331 6.96001C0.640473 5.3161 1.43872 3.80381 2.62141 2.62081C3.80409 1.43782 5.31617 0.639167 6.96 0.329261C7.7265 0.185761 8.612 0.18576 10.005 0.18576M10.1625 2.81076C8.55775 2.81076 7.93825 2.81601 7.44475 2.90876C6.32095 3.1212 5.2873 3.66752 4.47874 4.47639C3.67017 5.28527 3.12425 6.31913 2.91225 7.44301C2.81775 7.93651 2.8125 8.55601 2.8125 10.1608V22.5C2.8125 25.8373 2.816 28.2085 3.0575 30.0075C3.29375 31.7663 3.73825 32.7813 4.4785 33.5215C5.21875 34.2618 6.23375 34.7063 7.99425 34.9425C9.79325 35.184 12.1628 35.1875 15.5 35.1875H22.5C25.8372 35.1875 28.2085 35.184 30.0075 34.9425C31.7663 34.7063 32.7812 34.2618 33.5215 33.5215C34.2617 32.7813 34.7062 31.7663 34.9425 30.0058C35.184 28.2085 35.1875 25.8373 35.1875 22.5V18.6465C35.1875 16.3085 35.1857 14.6793 35.03 13.4403C34.8778 12.2345 34.5995 11.5853 34.1777 11.1163C34.0857 11.0125 33.9875 10.9143 33.8837 10.8223C33.4147 10.4005 32.7638 10.1223 31.5597 9.97001C30.3225 9.81426 28.6915 9.81251 26.3535 9.81251H25.5065C23.6725 9.81251 22.4895 9.81251 21.3713 9.49401C20.7587 9.31901 20.1655 9.07401 19.6073 8.76426C18.5923 8.19726 17.7558 7.36251 16.4573 6.06401L16.3225 5.92751L15.36 4.96501C15.079 4.6712 14.7853 4.38976 14.4797 4.12151C13.5993 3.39146 12.5192 2.94381 11.3805 2.83701C10.975 2.81117 10.5687 2.80125 10.1625 2.81076ZM19.4375 15.5C19.4375 15.1519 19.5758 14.8181 19.8219 14.5719C20.0681 14.3258 20.4019 14.1875 20.75 14.1875H29.5C29.8481 14.1875 30.1819 14.3258 30.4281 14.5719C30.6742 14.8181 30.8125 15.1519 30.8125 15.5C30.8125 15.8481 30.6742 16.1819 30.4281 16.4281C30.1819 16.6742 29.8481 16.8125 29.5 16.8125H20.75C20.4019 16.8125 20.0681 16.6742 19.8219 16.4281C19.5758 16.1819 19.4375 15.8481 19.4375 15.5Z" fill="white"/>
</svg>
