<svg width="36" height="26" viewBox="0 0 36 26" fill="none" xmlns="http://www.w3.org/2000/svg">
    <path d="M4.1272 0.400024H31.9522C34.5772 0.400024 35.9002 1.63902 35.9002 4.15902V21.841C35.9002 24.34 34.5772 25.6 31.9522 25.6H4.1272C1.5022 25.6 0.179199 24.34 0.179199 21.841V4.15902C0.179199 1.63902 1.5022 0.400024 4.1272 0.400024ZM18.0292 18.46L32.1832 6.84703C32.6872 6.42703 33.0862 5.46102 32.4562 4.60002C31.8472 3.73902 30.7342 3.71802 29.9992 4.24302L18.0292 12.349L6.0802 4.24302C5.3452 3.71802 4.2322 3.73902 3.6232 4.60002C2.9932 5.46102 3.3922 6.42703 3.8962 6.84703L18.0292 18.46Z" fill="white"/>
</svg>
