<svg width="37" height="37" viewBox="0 0 28 37" fill="none" xmlns="http://www.w3.org/2000/svg">
    <path d="M2.1875 4.3906C2.1875 3.52523 2.8735 2.8229 3.71875 2.8229H14V11.1094C14 12.1191 14.3918 13.0875 15.0892 13.8015C15.7866 14.5155 16.7325 14.9166 17.7188 14.9166H25.8125V32.6094C25.8125 33.0251 25.6512 33.4239 25.364 33.7179C25.0768 34.0119 24.6874 34.1771 24.2812 34.1771H3.71875C3.31264 34.1771 2.92316 34.0119 2.63599 33.7179C2.34883 33.4239 2.1875 33.0251 2.1875 32.6094V4.3906ZM24.9217 12.6771H17.7188C17.3126 12.6771 16.9232 12.5119 16.636 12.2179C16.3488 11.9239 16.1875 11.5251 16.1875 11.1094V3.73485L24.9217 12.6771ZM3.71875 0.583313C2.73248 0.583313 1.7866 0.984437 1.0892 1.69844C0.391795 2.41245 0 3.38085 0 4.3906V32.6094C0 33.6191 0.391795 34.5875 1.0892 35.3015C1.7866 36.0155 2.73248 36.4166 3.71875 36.4166H24.2812C25.2675 36.4166 26.2134 36.0155 26.9108 35.3015C27.6082 34.5875 28 33.6191 28 32.6094V14.2385C28.0001 13.7384 27.9039 13.2432 27.717 12.7811C27.5301 12.3191 27.2561 11.8992 26.9106 11.5456L17.2926 1.69863C16.9472 1.34497 16.5372 1.06444 16.0859 0.873074C15.6346 0.681705 15.1509 0.583243 14.6624 0.583313H3.71875Z" fill="white"/>
</svg>
