<svg width="33" height="21" viewBox="0 0 33 21" fill="#fff" xmlns="http://www.w3.org/2000/svg">
    <path fill-rule="evenodd" clip-rule="evenodd" d="M14.0706 1.19586C14.7152 0.552129 15.5889 0.190552 16.4998 0.190552C17.4108 0.190552 18.2845 0.552129 18.929 1.19586L31.8952 14.1575C32.2144 14.4768 32.4675 14.8559 32.6402 15.273C32.8129 15.6901 32.9017 16.1372 32.9016 16.5886C32.9015 17.0401 32.8124 17.4871 32.6396 17.9042C32.4667 18.3212 32.2134 18.7001 31.8941 19.0193C31.5748 19.3384 31.1957 19.5916 30.7786 19.7643C30.3615 19.9369 29.9144 20.0257 29.463 20.0256C29.0115 20.0255 28.5645 19.9365 28.1474 19.7636C27.7304 19.5908 27.3515 19.3375 27.0323 19.0182L16.4998 8.48794L5.96732 19.0204C5.65037 19.3489 5.27119 19.611 4.85188 19.7913C4.43258 19.9717 3.98156 20.0667 3.52513 20.0709C3.06871 20.0751 2.61602 19.9883 2.19348 19.8157C1.77095 19.643 1.38703 19.3879 1.06412 19.0653C0.741213 18.7427 0.485788 18.3591 0.312748 17.9367C0.139708 17.5143 0.0525188 17.0617 0.0562683 16.6053C0.0600179 16.1489 0.154631 15.6977 0.334587 15.2783C0.514542 14.8588 0.776236 14.4794 1.1044 14.1621L14.0706 1.19586Z" fill="#EEEEEE"/>
</svg>
