<svg width="42" height="42" viewBox="0 0 42 42" fill="none" xmlns="http://www.w3.org/2000/svg">
    <path d="M21 2.625C10.865 2.625 2.625 10.865 2.625 21C2.625 31.135 10.865 39.375 21 39.375C31.135 39.375 39.375 31.135 39.375 21C39.375 10.865 31.135 2.625 21 2.625Z" fill="#FDDD4C"/>
    <path d="M12.9529 25.7908C12.5511 25.1825 13.5616 24.2619 13.1506 23.4889C12.9137 23.0431 12.5264 22.7653 12.0612 22.707C11.6149 22.651 11.155 22.8144 10.8619 23.1338C10.3991 23.6374 10.3272 24.3228 10.4167 24.5654C10.4494 24.6543 10.5009 24.6786 10.5378 24.6838C10.7898 24.7169 10.9317 24.07 11.0187 23.9353C11.2593 23.564 11.8056 23.4516 12.1829 23.6957C12.8983 24.1584 12.278 24.9062 12.3315 25.5379C12.3836 26.1529 12.7668 26.4001 13.1108 26.4261C13.4455 26.4388 13.6795 26.2528 13.7386 26.1171C13.8802 25.7931 13.2834 26.2913 12.9529 25.7908Z" fill="black"/>
    <path d="M27.9007 20.207C27.7131 20.1811 27.508 20.1817 27.2946 20.207C27.1326 20.0026 26.9875 19.6717 26.9056 19.2854C26.7599 18.5981 26.7751 18.1003 27.1817 18.0356C27.5883 17.971 27.7849 18.3868 27.9306 19.074C28.0283 19.536 28.0096 19.9604 27.9007 20.207Z" fill="black"/>
    <path d="M23.4473 20.6159C23.4634 20.7715 23.4691 20.929 23.4645 21.074C23.8579 21.0971 24.1366 21.284 24.2108 21.4025C24.2488 21.4637 24.2336 21.5036 24.2213 21.522C24.1806 21.5854 24.0933 21.5756 23.9105 21.5551C23.7508 21.5372 23.5788 21.5214 23.4001 21.5296C23.3028 21.8279 23.0144 21.8558 22.8118 21.6352C22.6703 21.6784 22.3922 21.8559 22.3094 21.6629C22.3087 21.5672 22.4088 21.4281 22.5901 21.3052C22.4663 21.0691 22.3834 20.8163 22.3344 20.5546C22.0774 20.601 21.8461 20.6729 21.6649 20.7294C21.5798 20.7559 21.2431 20.9079 21.2037 20.7366C21.1774 20.6182 21.3617 20.423 21.5565 20.2821C21.7742 20.1275 22.0157 20.0177 22.266 19.9543C22.2606 19.5815 22.3557 19.3215 22.6265 19.2784C22.9623 19.225 23.1704 19.4835 23.3145 19.9623C23.7203 20.075 24.1255 20.3546 24.3044 20.6436C24.374 20.7556 24.3875 20.8422 24.3425 20.8879C24.23 21.0044 23.6069 20.6665 23.4473 20.6159Z" fill="black"/>
    <path d="M26.1157 22.2912C26.3732 22.416 26.6563 22.3669 26.7488 22.1815C26.8412 21.9961 26.7072 21.7449 26.4498 21.6202C26.1924 21.4954 25.9092 21.5445 25.8168 21.7299C25.7243 21.9153 25.8583 22.1665 26.1157 22.2912Z" fill="black"/>
    <path d="M27.3829 21.3707C27.3876 21.0871 27.5613 20.8608 27.7702 20.8642C27.9791 20.8683 28.1446 21.1004 28.14 21.3834C28.1353 21.6664 27.9615 21.8927 27.7527 21.8893C27.5438 21.8858 27.3782 21.6537 27.3829 21.3707Z" fill="black"/>
    <path fill-rule="evenodd" clip-rule="evenodd" d="M33.0468 24.8432C33.0451 24.8373 33.0509 24.8577 33.0468 24.8432C33.4662 24.8432 34.125 25.3191 34.125 26.4689C34.125 27.6129 33.6441 28.9088 33.5306 29.1964C31.7983 33.2943 27.6638 35.5754 22.7389 35.431C18.1474 35.2965 14.2317 32.9051 12.5181 29.0064C11.482 29.0075 10.4137 28.5577 9.60168 27.8473C8.74576 27.0989 8.21805 26.1304 8.11508 25.1204C8.03493 24.3338 8.13263 23.6022 8.38244 22.964L7.42005 22.159C3.01583 18.4884 16.7907 3.37529 21.1961 7.16829C21.2183 7.18735 22.695 8.61724 22.6985 8.6207C24.8227 7.73043 30.5141 6.0354 30.5205 9.98129C30.5229 11.2916 29.6769 12.8197 28.3214 14.2063C29.8879 15.6403 29.4748 17.6774 29.7243 19.5464L30.2684 19.6954C31.3057 19.9824 32.0434 20.3653 32.4044 20.7395C32.7654 21.1131 32.9444 21.4752 33.0093 21.8997C33.0702 22.2421 33.062 22.8468 32.6045 23.523C32.7692 23.9593 32.9196 24.3942 33.0468 24.8432ZM12.4403 27.9432C12.5942 27.9467 12.7469 27.9368 12.8966 27.9114C14.5061 27.6406 14.9273 25.915 14.6623 24.2207C14.3628 22.3074 13.0517 21.6329 12.1618 21.585C11.9144 21.5722 11.6844 21.5942 11.4949 21.6317C9.90649 21.9476 9.00961 23.2816 9.1863 25.0141C9.34601 26.582 10.9525 27.9039 12.4403 27.9432ZM8.84288 22.1018C9.37585 21.3378 10.247 20.7851 11.2357 20.5951C12.4941 17.2606 14.5956 14.1884 17.3769 12.0741C19.441 10.3746 21.6671 9.15546 21.6671 9.15546C21.6671 9.15546 20.4683 7.78333 20.1062 7.68227C17.8789 7.0886 13.0687 10.363 9.99717 14.6896C8.75453 16.44 6.97541 19.54 7.82607 21.1345C7.93079 21.332 8.52461 21.8396 8.84288 22.1018ZM26.9003 27.1774C26.9038 27.2132 26.8816 27.2502 26.8494 27.2635C26.8494 27.2635 25.0597 28.0853 22.217 27.2173C22.3192 28.0694 23.3526 28.3923 24.0745 28.5091C27.5971 29.1074 30.8903 27.1191 31.6315 26.6184C31.7588 26.5325 31.63 26.7535 31.607 26.7859C30.6996 27.9415 28.2599 29.2795 25.0861 29.279C23.7018 29.2784 22.3182 28.7973 21.8104 28.0575C21.0223 26.9101 21.7712 25.2347 23.0846 25.4091C25.3047 25.6566 27.5807 25.4707 29.636 24.529C31.4279 23.7078 32.1048 22.8046 32.003 22.0729C31.8452 20.939 30.164 20.7617 29.3142 20.486C28.9444 20.3653 28.7619 20.2688 28.7204 19.5822C28.7022 19.2825 28.6496 18.2366 28.6303 17.8041C28.5963 17.047 28.5039 16.0115 27.8533 15.5842C27.6837 15.4727 27.4953 15.419 27.2969 15.4086C27.1388 15.4011 27.045 15.4228 26.9946 15.4345C26.9833 15.4371 26.9742 15.4392 26.967 15.4404C26.6157 15.4993 26.4004 15.6771 26.1466 15.8866C26.1319 15.8987 26.1172 15.9109 26.1023 15.9232C25.2908 16.5907 24.6057 16.6999 23.8434 16.6676C23.606 16.6576 23.3613 16.6339 23.1032 16.6089C22.8658 16.5859 22.617 16.5618 22.3521 16.5463L22.0286 16.5278C20.752 16.4631 19.383 17.5511 19.1555 19.0965C18.9012 20.8215 19.8654 21.878 20.4924 22.5652C20.6473 22.735 20.7817 22.8822 20.872 23.0114C20.9299 23.0893 20.9972 23.1991 20.9972 23.3036C20.9972 23.4283 20.9153 23.5271 20.8351 23.6114C19.5328 24.9333 19.1163 27.0336 19.6071 28.784C19.6685 29.0023 19.7464 29.2114 19.8382 29.4112C20.9896 32.0671 24.5619 33.3041 28.0511 32.1792C30.4965 31.3906 32.6571 29.4853 33.0971 26.8569C33.2018 26.172 33.0479 25.9075 32.8385 25.7799C32.6168 25.6453 32.3511 25.6921 32.3511 25.6921C32.3511 25.6921 32.23 24.8738 31.8872 24.13C30.8698 24.9223 29.5605 25.479 28.5636 25.7614C26.9663 26.2137 25.241 26.3898 23.5905 26.1765C22.921 26.09 22.4712 26.0319 22.2784 26.6502C24.48 27.446 26.8102 27.1052 26.8102 27.1052C26.8552 27.1006 26.8956 27.133 26.9003 27.1774ZM20.5485 11.7346C19.3444 12.3427 18 13.4255 16.9083 14.6711C16.8697 14.7156 16.927 14.7768 16.9744 14.7428C17.9175 14.0654 19.2105 13.4359 20.9042 13.0282C22.8015 12.5714 24.628 12.7631 25.7436 13.0155C25.7998 13.0282 25.8349 12.9329 25.7852 12.9052C25.048 12.4969 23.9166 12.2197 23.1139 12.2139C23.0747 12.2133 23.0524 12.1683 23.0758 12.1371C23.2145 11.9529 23.4046 11.771 23.5784 11.6393C23.617 11.6093 23.5936 11.5475 23.5445 11.5503C22.5459 11.6109 20.2653 12.6508 20.2735 12.6129C20.332 12.3357 20.5163 11.9696 20.6116 11.7987C20.6345 11.7582 20.59 11.7138 20.5485 11.7346Z" fill="black"/>
</svg>
