<svg width="42" height="42" viewBox="0 0 42 42" fill="none" xmlns="http://www.w3.org/2000/svg">
    <path d="M2.625 15.925C2.625 11.2696 2.625 8.94184 3.53101 7.1637C4.32796 5.59961 5.59961 4.32796 7.1637 3.53101C8.94184 2.625 11.2696 2.625 15.925 2.625H26.075C30.7304 2.625 33.0582 2.625 34.8363 3.53101C36.4004 4.32796 37.672 5.59961 38.469 7.1637C39.375 8.94184 39.375 11.2696 39.375 15.925V26.075C39.375 30.7304 39.375 33.0582 38.469 34.8363C37.672 36.4004 36.4004 37.672 34.8363 38.469C33.0582 39.375 30.7304 39.375 26.075 39.375H15.925C11.2696 39.375 8.94184 39.375 7.1637 38.469C5.59961 37.672 4.32796 36.4004 3.53101 34.8363C2.625 33.0582 2.625 30.7304 2.625 26.075V15.925Z" fill="#001E36"/>
    <path d="M10.5 29.5526V13.392C10.5 13.2821 10.5459 13.2192 10.6531 13.2192C12.2355 13.2192 13.8172 13.125 15.4 13.125C17.9683 13.125 20.7493 14.0032 21.7241 16.6901C21.9538 17.3497 22.0763 18.025 22.0763 18.7317C22.0763 20.0824 21.77 21.1974 21.1575 22.0769C19.4465 24.5337 16.4811 24.4955 13.8228 24.4955V29.5369C13.8436 29.6861 13.7164 29.7567 13.5931 29.7567H10.6838C10.5613 29.7567 10.5 29.6939 10.5 29.5526ZM13.8381 16.2503V21.5272C14.8921 21.6045 15.9951 21.6128 17.0078 21.276C18.1258 20.9535 18.7381 19.9856 18.7381 18.826C18.7692 17.8378 18.2307 16.8896 17.3141 16.533C16.3135 16.117 14.9181 16.0921 13.8381 16.2503Z" fill="#31A8FF"/>
    <path d="M31.6269 20.4847C31.1635 20.2405 30.6701 20.0619 30.16 19.9537C29.5045 19.7994 26.9191 19.2592 26.9181 20.6111C26.9411 21.3658 28.1391 21.7356 28.6684 21.9512C30.5267 22.5892 32.6297 23.7296 32.5883 26.0221C32.6451 28.8761 29.88 30.0169 27.5098 30.0172C26.2758 30.03 24.9904 29.8389 23.8611 29.3092C23.7533 29.2521 23.6839 29.1301 23.6885 29.0058V26.275C23.6764 26.1655 23.7939 26.0698 23.8858 26.1486C24.9922 26.8177 26.3037 27.1426 27.5837 27.16C28.1488 27.16 29.2686 27.1052 29.2602 26.275C29.2602 25.4783 27.9205 25.112 27.3865 24.9096C26.6124 24.6332 25.8784 24.2505 25.2047 23.7717C24.2631 23.1001 23.6724 22.0233 23.6885 20.8387C23.683 18.1515 26.2283 16.9453 28.5206 16.9447C29.5922 16.9359 30.7429 17.0153 31.7404 17.4504C31.8839 17.4927 31.9136 17.6438 31.913 17.7791V20.333C31.9221 20.4915 31.746 20.5455 31.6269 20.4847Z" fill="#31A8FF"/>
</svg>
