<svg width="42" height="42" viewBox="0 0 42 42" fill="none" xmlns="http://www.w3.org/2000/svg">
    <path d="M2.625 15.925C2.625 11.2696 2.625 8.94184 3.53101 7.1637C4.32796 5.59961 5.59961 4.32796 7.1637 3.53101C8.94184 2.625 11.2696 2.625 15.925 2.625H26.075C30.7304 2.625 33.0582 2.625 34.8363 3.53101C36.4004 4.32796 37.672 5.59961 38.469 7.1637C39.375 8.94184 39.375 11.2696 39.375 15.925V26.075C39.375 30.7304 39.375 33.0582 38.469 34.8363C37.672 36.4004 36.4004 37.672 34.8363 38.469C33.0582 39.375 30.7304 39.375 26.075 39.375H15.925C11.2696 39.375 8.94184 39.375 7.1637 38.469C5.59961 37.672 4.32796 36.4004 3.53101 34.8363C2.625 33.0582 2.625 30.7304 2.625 26.075V15.925Z" fill="#001E36"/>
    <path d="M21.9249 29.6889H12.2116C12.0472 29.6889 11.965 29.5961 11.9651 29.4107V13.3546C11.9469 13.2239 12.0596 13.1083 12.187 13.127H15.1947C15.2937 13.1127 15.381 13.204 15.3672 13.304V26.5029H22.4427C22.5906 26.5029 22.6481 26.5788 22.6152 26.7305L22.1715 29.4613C22.1677 29.5988 22.0548 29.6874 21.9249 29.6889Z" fill="#31A8FF"/>
    <path d="M24.3926 17.1044H27.0799C27.228 17.1057 27.3611 17.2107 27.4003 17.3573C27.5973 17.8057 27.6215 18.3466 27.6222 18.8307C28.083 18.2804 28.6388 17.8218 29.2616 17.478C29.9296 17.0903 30.6869 16.8938 31.4543 16.9091C31.5817 16.8904 31.6944 17.006 31.6762 17.1366V20.1962C31.6762 20.3143 31.5938 20.3732 31.4297 20.3732C30.2923 20.2927 28.5215 20.5683 27.695 21.4857V29.4409C27.695 29.5926 27.6293 29.6685 27.4978 29.6685H24.6145C24.4729 29.6893 24.348 29.5586 24.3679 29.4156V20.7777C24.3679 19.6203 24.3924 18.428 24.2201 17.2814C24.1935 17.1759 24.292 17.0778 24.3926 17.1044Z" fill="#31A8FF"/>
</svg>
