<svg width="43" height="35" viewBox="0 0 43 35" fill="none" xmlns="http://www.w3.org/2000/svg">
    <path d="M41.0484 22.7391C40.4906 22.7391 40.0312 23.1656 40.0312 23.7234C40.0312 24.2813 40.4578 24.7078 41.0484 24.7078C41.6063 24.7078 42.0328 24.2813 42.0328 23.7234C42.0328 23.1656 41.6063 22.7391 41.0484 22.7391ZM41.0156 22.9031C41.475 22.9031 41.8031 23.2641 41.8031 23.7234C41.8031 24.1828 41.475 24.5438 41.0484 24.5438C40.5891 24.5438 40.2609 24.1828 40.2609 23.7234C40.2609 23.2641 40.5563 22.9359 41.0156 22.9031ZM40.6875 23.1656V24.2812H40.8844V23.7891H41.0812L41.3766 24.2812H41.5734L41.2781 23.7563C41.475 23.7563 41.5406 23.625 41.5406 23.4609C41.5406 23.2641 41.4094 23.1656 41.1469 23.1656H40.6875ZM40.8516 23.6578V23.2969H41.0812C41.2453 23.2969 41.3109 23.3625 41.3109 23.4938C41.3109 23.625 41.2125 23.6906 41.1141 23.6906L40.8516 23.6578ZM10.3031 27.0703C9.77812 26.6766 9.15469 26.3484 8.30156 26.0859C7.21875 25.725 5.64375 25.3641 5.02031 25.1344C4.62656 24.9703 4.4625 24.7406 4.4625 24.4125C4.4625 23.9531 5.02031 23.6906 5.67656 23.6578C6.75938 23.6906 7.0875 24.3141 7.15313 24.7406H10.3031V27.0703ZM14.2406 29.9906H16.5703C18.6047 29.9578 20.2453 28.9406 21.0656 27.4641C21.1312 27.3328 21.1969 27.2344 21.2625 27.1031C21.3937 27.2672 21.4922 27.3328 21.6234 27.4641C22.1812 27.9563 22.9031 28.3172 23.6578 28.5469C24.8719 28.9734 25.8234 29.2688 26.1516 29.4C26.775 29.6625 27.1687 29.8594 27.1687 30.4172C27.1687 31.0734 26.4469 31.3359 25.6922 31.3688C24.675 31.3359 23.6578 30.8438 23.6906 29.8266H19.7203C19.9172 32.4844 22.5422 34.5516 25.6266 34.5844C27.4969 34.5516 29.2359 34.0266 30.3516 32.6813C31.4672 33.8297 32.7797 34.5516 34.6172 34.5844C37.5375 34.5516 40.5562 33.1078 40.5891 30.0234C40.5891 29.0391 40.3266 28.1859 39.7031 27.4641C39.1453 26.8078 38.3578 26.3813 37.275 26.0859C36.1922 25.725 34.6172 25.3641 33.9937 25.1344C33.6 24.9703 33.4359 24.7406 33.4359 24.4125C33.4359 23.9531 33.9937 23.6906 34.65 23.6578C35.7328 23.6906 36.0609 24.3141 36.1266 24.7406H39.9328C39.9656 22.1156 37.7672 20.3766 34.65 20.3766C32.3203 20.3766 30.7453 21.2625 29.9578 22.5422C29.1047 21.1969 27.3984 20.3766 25.2656 20.3766C23.0344 20.3766 21.4922 21.2297 20.6719 22.4438C19.7531 21.2625 18.2437 20.5078 16.4062 20.5078H10.3031V22.5094C9.45 21.1641 7.74375 20.3766 5.64375 20.3766C2.39531 20.3766 0.623437 22.1812 0.459375 24.2484C0.459375 25.5281 1.08281 26.6766 2.03437 27.4969C2.59219 27.9891 3.24844 28.35 4.00313 28.5797C5.21719 29.0063 6.16875 29.3016 6.49688 29.4328C7.12031 29.6953 7.51406 29.8922 7.51406 30.45C7.51406 31.1063 6.75938 31.3688 6.0375 31.4016C5.02031 31.3688 4.00313 30.8766 4.03594 29.8594H0C0.196875 32.5172 2.82188 34.5844 5.90625 34.6172C7.6125 34.5844 9.1875 34.125 10.2375 33.1406V34.3875H14.175L14.2406 29.9906ZM14.2406 23.7891H16.3734C17.1609 23.7891 17.85 24.4453 17.85 25.2656C17.85 26.0859 17.1937 26.7422 16.3734 26.7422H14.2406V23.7891ZM30.3844 27.4969C29.8266 26.8406 29.0391 26.4141 27.9562 26.1188C26.8734 25.7578 25.2984 25.3969 24.7078 25.1672C24.2812 25.0031 24.0844 24.7734 24.0844 24.4453C24.0844 23.9859 24.6422 23.7234 25.2984 23.6906C26.4141 23.7234 26.7094 24.3469 26.775 24.7734H29.4656C29.6297 25.8234 30.1547 26.775 31.0078 27.4969C31.5656 27.9891 32.2547 28.35 33.0094 28.5797C34.2234 29.0063 35.175 29.3016 35.4703 29.4328C36.1266 29.6953 36.4875 29.8922 36.4875 30.45C36.4875 31.1063 35.7328 31.3688 35.0109 31.4016C33.9937 31.3688 32.9766 30.8766 33.0094 29.8594H31.2047C31.2047 28.9078 30.9094 28.1203 30.3844 27.4969ZM0.065625 0V1.14844H8.23594V0H0.065625ZM9.35156 0V1.14844H21.0328C21.0328 1.14844 19.8516 0 18.2766 0H9.35156ZM23.3297 0V1.14844H30.3844L29.9578 0H23.3297ZM35.4375 0L35.0109 1.14844H42V0H35.4375ZM0.065625 2.23125V3.37969H8.23594V2.23125H0.065625ZM9.35156 2.23125V3.37969H22.3453C22.3453 3.37969 22.1812 2.49375 21.9187 2.23125H9.35156ZM23.3297 2.23125V3.37969H31.1391L30.7453 2.23125H23.3297ZM34.5844 2.23125L34.1906 3.37969H41.9672V2.23125H34.5844ZM2.42813 4.4625V5.61094H5.93906V4.4625H2.42813ZM11.7141 4.4625V5.61094H15.2578V4.4625H11.7141ZM18.7359 4.4625V5.61094H22.2797C22.2797 5.61094 22.5094 4.9875 22.5094 4.4625H18.7359ZM25.6922 4.4625V5.61094H31.9594L31.5328 4.4625H25.6922ZM33.8297 4.4625L33.4031 5.61094H39.7031V4.4625H33.8297ZM2.42813 6.72656V7.875H5.93906V6.72656H2.42813ZM11.7141 6.72656V7.875H20.7703C20.7703 7.875 21.525 7.28438 21.7547 6.72656H11.7141ZM25.6922 6.72656V7.875H29.2359V7.25156L29.4656 7.875H35.9625L36.1922 7.25156V7.875H39.7359V6.72656H33.075L32.7141 7.71094L32.3531 6.72656H25.6922ZM2.42813 8.95781V10.1062H5.93906V8.95781H2.42813ZM11.7141 8.95781V10.1062H21.7547C21.525 9.54844 20.7703 8.95781 20.7703 8.95781H11.7141ZM25.6922 8.95781V10.1062H29.2359V8.95781H25.6922ZM29.8594 8.95781L30.2859 10.1062H35.1422L35.5359 8.95781H29.8594ZM36.1922 8.95781V10.1062H39.7359V8.95781H36.1922ZM2.42813 11.1891V12.3375H5.93906V11.1891H2.42813ZM11.7141 11.1891V12.3375H15.2578V11.1891H11.7141ZM18.7359 11.1891V12.3375H22.5094C22.5094 11.7797 22.2797 11.1891 22.2797 11.1891H18.7359ZM25.6922 11.1891V12.3375H29.2359V11.1891H25.6922ZM30.6797 11.1891L31.1062 12.3375H34.3547L34.7812 11.1891H30.6797ZM36.1922 11.1891V12.3375H39.7359V11.1891H36.1922ZM0.13125 13.4203V14.5687H8.30156V13.4203H0.13125ZM9.35156 13.4203V14.5687H21.9516C22.2141 14.3062 22.3781 13.4203 22.3781 13.4203H9.35156ZM23.3953 13.4203V14.5687H29.2359V13.4203H23.3953ZM31.4672 13.4203L31.8937 14.5687H33.5672L33.9609 13.4203H31.4672ZM36.1922 13.4203V14.5687H42.0656V13.4203H36.1922ZM0.13125 15.6516V16.8H8.30156V15.6516H0.13125ZM9.35156 15.6516V16.8H18.2437C19.8188 16.8 21 15.6516 21 15.6516H9.35156ZM23.3953 15.6516V16.8H29.2359V15.6516H23.3953ZM32.2875 15.6516L32.7141 16.8H32.7797L33.2062 15.6516H32.2875ZM36.1922 15.6516V16.8H42.0656V15.6516H36.1922Z" fill="white"/>
</svg>
