<svg width="42" height="42" viewBox="0 0 42 42" fill="none" xmlns="http://www.w3.org/2000/svg">
    <path d="M2.625 15.925C2.625 11.2696 2.625 8.94184 3.53101 7.1637C4.32796 5.59961 5.59961 4.32796 7.1637 3.53101C8.94184 2.625 11.2696 2.625 15.925 2.625H26.075C30.7304 2.625 33.0582 2.625 34.8363 3.53101C36.4004 4.32796 37.672 5.59961 38.469 7.1637C39.375 8.94184 39.375 11.2696 39.375 15.925V26.075C39.375 30.7304 39.375 33.0582 38.469 34.8363C37.672 36.4004 36.4004 37.672 34.8363 38.469C33.0582 39.375 30.7304 39.375 26.075 39.375H15.925C11.2696 39.375 8.94184 39.375 7.1637 38.469C5.59961 37.672 4.32796 36.4004 3.53101 34.8363C2.625 33.0582 2.625 30.7304 2.625 26.075V15.925Z" fill="#330000"/>
    <path d="M20.4335 25.7201H14.7386L13.5799 29.4118C13.5478 29.5489 13.4215 29.6461 13.2841 29.6393H10.3997C10.2352 29.6393 10.1777 29.5466 10.2271 29.3612L15.1577 14.7969C15.207 14.6452 15.2564 14.4724 15.3057 14.2785C15.3701 13.9412 15.4032 13.5983 15.4043 13.2545C15.3901 13.1529 15.4794 13.0632 15.5768 13.0775H19.4966C19.6115 13.0775 19.6772 13.1196 19.6939 13.2039L25.2902 29.3864C25.3395 29.5552 25.2901 29.6394 25.1422 29.6393H21.9373C21.8249 29.6521 21.7175 29.575 21.6908 29.4623L20.4335 25.7201ZM15.6261 22.5342H19.5213C18.8813 20.3473 18.1591 18.1892 17.5738 15.9853C16.9422 18.1929 16.2531 20.3916 15.6261 22.5342Z" fill="#FF9A00"/>
    <path d="M28.618 15.7576C28.3666 15.768 28.1158 15.7238 27.8822 15.6279C27.6485 15.5321 27.4372 15.3867 27.2621 15.2014C27.0875 15.008 26.9518 14.7811 26.863 14.5337C26.7741 14.2864 26.7338 14.0235 26.7443 13.7601C26.7354 13.4993 26.7802 13.2396 26.8757 12.9978C26.9713 12.7559 27.1156 12.5375 27.299 12.3568C27.4808 12.1779 27.6952 12.0377 27.9301 11.9444C28.165 11.8511 28.4155 11.8065 28.6673 11.8131C29.259 11.8131 29.7233 11.9944 30.0602 12.3568C30.2303 12.5451 30.3625 12.766 30.4492 13.0068C30.5359 13.2476 30.5755 13.5036 30.5656 13.7601C30.5759 14.0245 30.5343 14.2883 30.4432 14.5359C30.3522 14.7835 30.2135 15.0098 30.0356 15.2014C29.8495 15.3894 29.6275 15.536 29.3836 15.6317C29.1396 15.7274 28.879 15.7703 28.618 15.7576ZM26.9169 29.3864V17.3C26.9169 17.1483 26.9824 17.0724 27.1141 17.0724H30.1465C30.2779 17.0724 30.3436 17.1483 30.3438 17.3V29.3864C30.3438 29.5551 30.278 29.6394 30.1465 29.6392H27.1388C26.9909 29.6392 26.917 29.5549 26.9169 29.3864Z" fill="#FF9A00"/>
</svg>
