<svg width="42" height="42" viewBox="0 0 42 42" fill="none" xmlns="http://www.w3.org/2000/svg">
    <path d="M2.625 15.925C2.625 11.2696 2.625 8.94184 3.53101 7.1637C4.32796 5.59961 5.59961 4.32796 7.1637 3.53101C8.94184 2.625 11.2696 2.625 15.925 2.625H26.075C30.7304 2.625 33.0582 2.625 34.8363 3.53101C36.4004 4.32796 37.672 5.59961 38.469 7.1637C39.375 8.94184 39.375 11.2696 39.375 15.925V26.075C39.375 30.7304 39.375 33.0582 38.469 34.8363C37.672 36.4004 36.4004 37.672 34.8363 38.469C33.0582 39.375 30.7304 39.375 26.075 39.375H15.925C11.2696 39.375 8.94184 39.375 7.1637 38.469C5.59961 37.672 4.32796 36.4004 3.53101 34.8363C2.625 33.0582 2.625 30.7304 2.625 26.075V15.925Z" fill="#00005B"/>
    <path d="M10.5 28.6068V12.0854C10.5 11.9731 10.5461 11.9088 10.6536 11.9088C12.2407 11.9088 13.8271 11.8125 15.4146 11.8125C17.9906 11.8125 20.7799 12.7103 21.7576 15.4572C21.9879 16.1315 22.1108 16.8219 22.1108 17.5444C22.1108 18.9252 21.8036 20.0652 21.1893 20.9643C19.4732 23.4759 16.4989 23.4369 13.8327 23.4369V28.5908C13.8536 28.7433 13.726 28.8156 13.6024 28.8156H10.6843C10.5614 28.8156 10.5 28.7513 10.5 28.6068ZM13.8481 15.0076V20.4023C14.9052 20.4813 16.0115 20.4898 17.0272 20.1454C18.1486 19.8157 18.7627 18.8263 18.7627 17.6407C18.7939 16.6305 18.2538 15.6612 17.3344 15.2966C16.3309 14.8713 14.9313 14.8458 13.8481 15.0076Z" fill="#9999FF"/>
    <path d="M24.1927 16.0282H26.8879C27.0366 16.0295 27.17 16.1368 27.2094 16.2867C27.4069 16.7452 27.4312 17.298 27.4319 17.793C27.8941 17.2304 28.4515 16.7616 29.0762 16.4101C29.7462 16.0138 30.5058 15.8129 31.2755 15.8285C31.4032 15.8094 31.5163 15.9276 31.4981 16.0611V19.1889C31.4981 19.3097 31.4153 19.3699 31.2508 19.3699C30.11 19.2876 28.3339 19.5694 27.5049 20.5073V28.6401C27.5049 28.7952 27.439 28.8728 27.3071 28.8728H24.4153C24.2732 28.8941 24.1479 28.7604 24.1679 28.6142V19.7835C24.1679 18.6002 24.1925 17.3813 24.0196 16.2091C23.993 16.1013 24.0918 16.001 24.1927 16.0282Z" fill="#9999FF"/>
</svg>
