<svg width="42" height="42" viewBox="0 0 42 42" fill="none" xmlns="http://www.w3.org/2000/svg">
    <path d="M39.375 24.9375C39.375 15.75 34.7812 9.1875 28.875 9.1875C24.2812 9.1875 21 14.4375 21 14.4375C18.375 18.375 18.375 25.5938 22.3125 17.7188C22.3125 17.7188 25.5938 12.4688 28.875 12.4688C33.4688 12.4688 35.8894 20.3438 35.8894 24.9375C35.8894 26.25 35.4375 28.875 32.8125 28.875V32.8125C35.4375 32.8125 39.375 30.8438 39.375 24.9375Z" fill="url(#paint0_radial_307_180)"/>
    <path d="M13.125 9.1875V13.125C8.925 13.65 6.5625 20.3438 6.5625 24.9375C6.5625 26.25 7.21875 28.875 9.1875 28.875C12.4687 28.875 16.2418 21.6299 19.6875 16.3309C21.5167 13.5178 23.3374 15.9332 21.949 18.375C18.6595 24.1607 15.3655 32.8125 9.1875 32.8125C6.5625 32.8125 2.625 30.8438 2.625 24.9375C2.625 13.125 9.84375 9.1875 13.125 9.1875Z" fill="url(#paint1_radial_307_180)"/>
    <path d="M32.8125 28.875C28.2188 28.875 22.9688 9.1875 13.125 9.1875V13.125C21 13.125 24.2812 32.8125 32.8125 32.8125V28.875Z" fill="#0768E1"/>
    <defs>
        <radialGradient id="paint0_radial_307_180" cx="0" cy="0" r="1" gradientUnits="userSpaceOnUse" gradientTransform="translate(32.8125 31.5) rotate(-101.31) scale(23.4236 18.2184)">
            <stop stop-color="#0768E1"/>
            <stop offset="1" stop-color="#0082FB"/>
        </radialGradient>
        <radialGradient id="paint1_radial_307_180" cx="0" cy="0" r="1" gradientUnits="userSpaceOnUse" gradientTransform="translate(13.125 11.8125) rotate(154.537) scale(15.264 8.00583)">
            <stop stop-color="#0768E1"/>
            <stop offset="1" stop-color="#0082FB"/>
        </radialGradient>
    </defs>
</svg>
