<svg width="42" height="41" viewBox="0 0 42 41" fill="none" xmlns="http://www.w3.org/2000/svg">
    <path d="M20.332 1.89368V3.7952H16.9163V5.03189H20.332V8.81925H21.6673V5.03189H25.1686V3.7952H21.6673V0H20.332V1.89368Z" fill="#7099A6"/>
    <path d="M9.16848 6.71699V9.47641H3.99805V11.2077H9.16848V16.8117H11.086V11.2077H16.3341V9.47641H11.086V3.95758H9.16848V6.71699Z" fill="#EB912C"/>
    <path d="M30.836 6.71699V9.47641H25.6655V11.2928H30.836V16.8117H32.8311V11.2928H38.0014V9.47641H32.8311V3.95758H30.836V6.71699Z" fill="#59879B"/>
    <path d="M19.8352 16.1159V19.2078H14.0825V21.5111H19.8352V27.6946H22.1642V21.5111H27.9168V19.2078H22.1642V13.0241H19.8352V16.1159Z" fill="#E8762C"/>
    <path d="M36.7517 17.6772V19.6175H33.2505V21.1864H36.7517V25.0589H38.4985V21.1864H41.9998V19.6175H38.4985V15.745H36.7517V17.6772Z" fill="#5B6591"/>
    <path d="M3.41594 17.8473V19.7024H0V21.0164H3.41594V24.7266H4.75109V21.0164L8.25234 20.8927V19.7024H4.75109V15.9923H3.41594V17.8473Z" fill="#7099A6"/>
    <path d="M9.16848 26.5816V29.341H3.99805V31.1574H9.16848V36.6762H11.1636V31.1574H16.3341V29.341H11.1636V23.8221H9.16848V26.5816Z" fill="#C72035"/>
    <path d="M30.836 26.5816V29.341H25.6655V31.0724H30.836V36.6762H32.8311V31.0724H38.0014V29.341H32.8311V23.8221H30.836V26.5816Z" fill="#1F447E"/>
    <path d="M20.1692 33.5922V35.5246H16.668V37.0937H20.1692V40.9662H21.916V37.0937H25.4173V35.5246H21.916V31.6522H20.1692V33.5922Z" fill="#5B6591"/>
</svg>
