<svg width="47" height="47" viewBox="0 0 47 47" fill="none" xmlns="http://www.w3.org/2000/svg">
    <path fill-rule="evenodd" clip-rule="evenodd" d="M23.5 23.5C23.5 20.2553 26.1303 17.625 29.375 17.625C32.6197 17.625 35.25 20.2553 35.25 23.5C35.25 26.7447 32.6197 29.375 29.375 29.375C26.1303 29.375 23.5 26.7447 23.5 23.5Z" fill="#1ABCFE"/>
    <path fill-rule="evenodd" clip-rule="evenodd" d="M11.75 35.25C11.75 32.0053 14.3803 29.375 17.625 29.375H23.5V35.25C23.5 38.4947 20.8697 41.125 17.625 41.125C14.3803 41.125 11.75 38.4947 11.75 35.25Z" fill="#0ACF83"/>
    <path fill-rule="evenodd" clip-rule="evenodd" d="M23.5 5.875V17.625H29.375C32.6197 17.625 35.25 14.9947 35.25 11.75C35.25 8.50533 32.6197 5.875 29.375 5.875H23.5Z" fill="#FF7262"/>
    <path fill-rule="evenodd" clip-rule="evenodd" d="M11.75 11.75C11.75 14.9947 14.3803 17.625 17.625 17.625H23.5V5.875H17.625C14.3803 5.875 11.75 8.50533 11.75 11.75Z" fill="#F24E1E"/>
    <path fill-rule="evenodd" clip-rule="evenodd" d="M11.75 23.5C11.75 26.7447 14.3803 29.375 17.625 29.375H23.5V17.625H17.625C14.3803 17.625 11.75 20.2553 11.75 23.5Z" fill="#A259FF"/>
</svg>
