<svg width="70" height="70" viewBox="0 0 70 70" fill="none" xmlns="http://www.w3.org/2000/svg">
    <path d="M61.3668 32.4626C60.9584 32.4626 60.5501 32.6376 60.2292 32.9584L57.3126 35.8751L63.2918 41.8542L66.2084 38.9376C66.8501 38.3251 66.8501 37.3042 66.2084 36.6917L62.4751 32.9584C62.3334 32.8052 62.1621 32.6823 61.9716 32.5971C61.7812 32.5119 61.5754 32.4661 61.3668 32.4626ZM55.6209 37.5667L37.9167 55.2417V61.2501H43.9251L61.6001 43.5459L55.6209 37.5667ZM32.0834 58.3334H8.75008C7.20299 58.3334 5.71925 57.7188 4.62529 56.6249C3.53133 55.5309 2.91675 54.0472 2.91675 52.5001V17.5001C2.91675 15.953 3.53133 14.4693 4.62529 13.3753C5.71925 12.2813 7.20299 11.6667 8.75008 11.6667H11.6667L17.5001 23.3334H26.2501L20.4167 11.6667H26.2501L32.0834 23.3334H40.8334L35.0001 11.6667H40.8334L46.6667 23.3334H55.4167L49.5834 11.6667H61.2501V23.6834L32.0834 52.8209V58.3334Z" fill="white"/>
</svg>
