<svg width="37" height="37" viewBox="0 0 37 37" fill="none" xmlns="http://www.w3.org/2000/svg">
    <path d="M18.4998 15.1363V22.3009H28.4561C28.0189 24.605 26.7069 26.556 24.7392 27.8677L30.7433 32.5264C34.2415 29.2974 36.2597 24.5547 36.2597 18.9206C36.2597 17.6088 36.142 16.3473 35.9233 15.1365L18.4998 15.1363Z" fill="white"/>
    <path d="M8.13178 22.0212L6.77764 23.0578L1.98438 26.7914C5.02846 32.829 11.2675 37 18.4993 37C23.4942 37 27.6818 35.3518 30.7428 32.5264L24.7388 27.8678C23.0906 28.9778 20.9883 29.6505 18.4993 29.6505C13.6893 29.6505 9.60263 26.4047 8.13934 22.0319L8.13178 22.0212Z" fill="white"/>
    <path d="M1.9844 10.2086C0.723106 12.6976 0 15.5063 0 18.4999C0 21.4935 0.723106 24.3022 1.9844 26.7912C1.9844 26.8079 8.13996 22.0148 8.13996 22.0148C7.76996 20.9048 7.55127 19.7276 7.55127 18.4997C7.55127 17.2718 7.76996 16.0946 8.13996 14.9846L1.9844 10.2086Z" fill="white"/>
    <path d="M18.4997 7.36636C21.2243 7.36636 23.646 8.30815 25.5801 10.1245L30.8778 4.82688C27.6655 1.8333 23.4948 0 18.4997 0C11.2679 0 5.02846 4.15408 1.98438 10.2086L8.13975 14.985C9.60284 10.6122 13.6897 7.36636 18.4997 7.36636Z" fill="white"/>
</svg>
