<svg width="36" height="37" viewBox="0 0 36 37" fill="none" xmlns="http://www.w3.org/2000/svg">
    <path d="M33.3352 0H2.65781C1.18828 0 0 1.19238 0 2.6666V34.3262C0 35.8004 1.18828 37 2.65781 37H33.3352C34.8047 37 36 35.8004 36 34.3334V2.6666C36 1.19238 34.8047 0 33.3352 0ZM10.6805 31.5295H5.33672V13.8678H10.6805V31.5295ZM8.00859 11.4613C6.29297 11.4613 4.90781 10.0377 4.90781 8.28164C4.90781 6.52559 6.29297 5.10195 8.00859 5.10195C9.71719 5.10195 11.1023 6.52559 11.1023 8.28164C11.1023 10.0305 9.71719 11.4613 8.00859 11.4613ZM30.6773 31.5295H25.3406V22.9443C25.3406 20.8992 25.3055 18.2615 22.5633 18.2615C19.7859 18.2615 19.3641 20.4945 19.3641 22.7998V31.5295H14.0344V13.8678H19.1531V16.2814H19.2234C19.9336 14.8939 21.6773 13.427 24.2719 13.427C29.6789 13.427 30.6773 17.0836 30.6773 21.8387V31.5295Z" fill="white"/>
</svg>
